<svg xmlns="http://www.w3.org/2000/svg" width="18" height="18" viewBox="0 0 18 18">
    <path fill="#FFF" fill-rule="nonzero" d="M3 0h12a3 3 0 0 1 3 3v12a3 3 0 0 1-3 3H3a3 3 0 0 1-3-3V3a3 3 0 0 1 3-3zm8.921 13.223c2.273-.07 3.148-1.539 3.148-1.539 0-3.26-1.482-5.903-1.482-5.903-1.48-1.093-2.89-1.063-2.89-1.063l-.144.162c1.749.527 2.561 1.286 2.561 1.286a8.48 8.48 0 0 0-3.096-.972 8.84 8.84 0 0 0-2.077.02c-.062 0-.114.01-.175.02-.36.031-1.235.163-2.335.639-.38.172-.607.293-.607.293s.854-.8 2.705-1.326l-.103-.122s-1.409-.03-2.89 1.063c0 0-1.481 2.643-1.481 5.903 0 0 .864 1.468 3.137 1.54 0 0 .38-.456.69-.841-1.307-.385-1.8-1.195-1.8-1.195s.102.071.287.172c.01.01.02.02.041.03.031.02.062.031.093.051.257.142.514.253.75.345.422.162.926.323 1.513.435a7.318 7.318 0 0 0 2.664.01 6.85 6.85 0 0 0 1.491-.435c.36-.132.761-.324 1.183-.598 0 0-.514.83-1.862 1.205.309.385.68.82.68.82zM7.138 8.495c-.586 0-1.049.506-1.049 1.124 0 .617.473 1.124 1.05 1.124.586 0 1.048-.507 1.048-1.124.01-.618-.462-1.124-1.049-1.124zm3.755 0c-.587 0-1.05.506-1.05 1.124 0 .617.474 1.124 1.05 1.124.586 0 1.049-.507 1.049-1.124 0-.618-.463-1.124-1.05-1.124z"/>
</svg>
