<svg xmlns="http://www.w3.org/2000/svg" width="18" height="18" viewBox="0 0 18 18">
    <path fill="#FFF" fill-rule="evenodd" d="M9 18A9 9 0 1 1 9 0a9 9 0 0 1 0 18zm6.002-9a1.317 1.317 0 0 0-2.223-.902 6.399 6.399 0 0 0-3.466-1.107l.584-2.808 1.926.405a.9.9 0 1 0 .119-.55l-2.206-.44a.279.279 0 0 0-.333.212v.004l-.665 3.123a6.447 6.447 0 0 0-3.51 1.108 1.312 1.312 0 1 0-1.445 2.152 2.924 2.924 0 0 0 0 .396c0 2.016 2.349 3.655 5.246 3.655 2.897 0 5.246-1.637 5.246-3.655a2.924 2.924 0 0 0 0-.396c.452-.226.736-.691.727-1.197zm-9 .902c0-.497.405-.902.902-.902.496 0 .901.405.901.902a.903.903 0 0 1-.901.901.905.905 0 0 1-.902-.901zm5.228 2.474a3.456 3.456 0 0 1-2.223.693 3.456 3.456 0 0 1-2.224-.693.243.243 0 1 1 .342-.342 2.94 2.94 0 0 0 1.873.566 2.962 2.962 0 0 0 1.881-.549.253.253 0 0 1 .356.005.253.253 0 0 1-.005.356v-.036zm-.16-1.542a.903.903 0 0 1-.902-.901c0-.497.405-.902.901-.902.497 0 .902.405.902.902a.9.9 0 0 1-.864.935h-.044l.006-.034z"/>
</svg>
