<svg xmlns="http://www.w3.org/2000/svg" width="19" height="16" viewBox="0 0 19 16">
    <path fill="#FFF" fill-rule="nonzero" d="M19 1.018l-.75 3.575c-.018.09-.04.177-.06.265l-.237 1.11c-.244 1.16-.49 2.322-.736 3.482-.093.41-.185.824-.279 1.235-.146.75-.292 1.499-.44 2.25l-.484 2.258c-.381.892-.932 1.044-1.719.46-1.055-.784-2.104-1.575-3.156-2.362l-.195-.135-.462.457-1.167 1.158c-.045.044-.095.1-.15.161-.032.034-.062.07-.096.105a.967.967 0 0 1-.145.131 2.801 2.801 0 0 0-.125.105c-.256.22-.686.59-1.355.59-.04 0-.08 0-.12-.002-.04.002-.082.004-.12.004-.261 0-1.136-.084-1.46-1.171-.15-.502-.313-1.014-.47-1.51l-.195-.612-.555-1.78-.421-1.357a1.055 1.055 0 0 1-.046-.368L.58 7.99c-.043-.014-.094-.023-.124-.052C.29 7.78.02 7.627 0 7.45c-.02-.175.172-.45.347-.556.393-.238.83-.41 1.257-.586.486-.203.981-.383 1.473-.574l6.56-2.536c1.061-.412 2.124-.82 3.184-1.235.423-.167.84-.35 1.26-.525.687-.249 1.376-.49 2.058-.749.412-.154.813-.334 1.22-.502.108-.03.217-.053.324-.09.727-.249 1.133-.024 1.287.72.013.065.02.134.029.2zM8.63 11.482c-.06.784-.117 1.568-.174 2.351l-.024.324c.045-.048.088-.097.134-.145l1.483-1.468-1.42-1.062zm3.886-6.905c-2.403 1.521-4.806 3.046-7.21 4.566-.049.03-.102.055-.156.08.314 1.01.63 2.02.943 3.03.224.712.457 1.421.67 2.136.087.296.239.454.559.398.089-1.208.174-2.416.265-3.625.01-.141.027-.285.044-.426-.136-.078-.076-.228-.03-.277l.25-.26.089-.083.123-.13c.2-.186.397-.375.596-.562a124.706 124.706 0 0 1 1.273-1.187c.798-.728 1.612-1.44 2.412-2.165 1.02-.925 2.037-1.854 3.047-2.79.074-.103.122-.236.187-.35-.181.024-.393-.006-.537.079-.85.508-1.687 1.037-2.525 1.566z"/>
</svg>
