<svg xmlns="http://www.w3.org/2000/svg" width="165" height="165" viewBox="0 0 165 165">
    <g fill="none" fill-rule="nonzero">
        <path fill="#0070F0" d="M0 82c0-30.564 16.52-57.27 41.118-71.674l1.01 1.727C18.121 26.111 2 52.173 2 82H0zM17.076 132.436l1.589-1.216C33.469 150.541 56.779 163 83 163c22.368 0 42.618-9.066 57.276-23.724l1.414 1.414C126.67 155.71 105.92 165 83 165c-26.868 0-50.754-12.766-65.924-32.564z"/>
        <path fill="#11CBD6" d="M7.172 115.803a82.46 82.46 0 0 1-1.947-4.755l1.874-.7a80.473 80.473 0 0 0 1.9 4.64l-1.827.815z"/>
        <path fill="#0070F0" d="M97.763.31c15.186 2.725 28.939 9.582 40.053 19.365l-1.321 1.502c-10.847-9.547-24.267-16.239-39.087-18.9L97.763.31z"/>
        <path fill="#11CBD6" d="M58.618 2.639a82.396 82.396 0 0 1 7.255-1.87l.413 1.957a80.41 80.41 0 0 0-7.08 1.825l-.588-1.912zM165.928 85.497a82.551 82.551 0 0 1-8.854 33.986l-1.785-.903a80.562 80.562 0 0 0 8.64-33.167l1.999.084zM151.618 128.71a83.253 83.253 0 0 1-2.31 3.22l-1.598-1.203a81.249 81.249 0 0 0 2.255-3.142l1.653 1.125z"/>
        <path fill="#0070F0" d="M154.674 40.118a82.552 82.552 0 0 1 7.552 17.064l-1.909.598a80.563 80.563 0 0 0-7.37-16.653l1.727-1.009z"/>
        <path fill="#11CBD6" d="M145.698 27.611c.843.97 1.663 1.96 2.46 2.97l-1.57 1.238a81.418 81.418 0 0 0-2.4-2.897l1.51-1.31z"/>
    </g>
</svg>
