<svg xmlns="http://www.w3.org/2000/svg" xmlns:xlink="http://www.w3.org/1999/xlink" width="136" height="36" viewBox="0 0 136 36">
    <defs>
        <linearGradient id="b" x1="0%" y1="0%" y2="100%">
            <stop offset="0%" stop-color="#0098E2"/>
            <stop offset="100%" stop-color="#6AEAB2"/>
        </linearGradient>
        <path id="a" d="M29.865 13H19.24a4.457 4.457 0 0 0-3.06-2.868A4.502 4.502 0 0 0 15 9.97c-2.468 0-4.469 1.982-4.469 4.426 0 .59.12 1.152.33 1.667l.005.012a4.471 4.471 0 0 0 4.134 2.748c2.262 0 4.13-1.664 4.426-3.824h10.56c-.034 3.098-1.429 6.392-3.356 9.476-2.48 3.97-5.84 7.593-8.311 10.009l-.086.084c-1.841 1.794-4.772 1.857-6.698.152-.042-.036-.085-.076-.127-.113a53.269 53.269 0 0 1-1.683-1.564C5.41 28.85.016 22.156.016 14.886c0-1.478.22-2.904.626-4.251a14.862 14.862 0 0 1 5.253-7.536A15.01 15.01 0 0 1 15 .041a15.01 15.01 0 0 1 8.833 2.855c3.245 2.35 5.5 5.96 6.03 10.104z"/>
    </defs>
    <g fill="none" fill-rule="evenodd">
        <g fill="#4C5864">
            <path d="M39.213 23.884a6.43 6.43 0 0 1-2.515-2.412c-.607-1.026-.91-2.183-.91-3.472 0-1.289.306-2.446.919-3.472a6.499 6.499 0 0 1 2.524-2.412c1.07-.582 2.268-.873 3.595-.873 1.076 0 2.058.188 2.947.563.888.376 1.639.92 2.252 1.633l-1.577 1.483c-.95-1.026-2.12-1.54-3.51-1.54-.9 0-1.707.197-2.42.592a4.262 4.262 0 0 0-1.671 1.642c-.4.701-.6 1.496-.6 2.384 0 .888.2 1.683.6 2.383.4.702.957 1.249 1.67 1.643.714.394 1.52.591 2.422.591 1.389 0 2.559-.519 3.51-1.558l1.576 1.502a5.995 5.995 0 0 1-2.262 1.633c-.895.375-1.88.563-2.956.563-1.326 0-2.524-.29-3.594-.873M61.84 14.17c-.552-.45-1.359-.675-2.422-.675h-2.853v5.237h2.853c1.063 0 1.87-.228 2.421-.685.55-.457.826-1.104.826-1.943 0-.838-.276-1.482-.826-1.933zm.881 10.4l-2.684-3.849a4.97 4.97 0 0 1-.507.02h-2.965v3.828h-2.44V11.431h5.405c1.139 0 2.13.187 2.975.563.845.375 1.493.913 1.943 1.614.45.7.676 1.533.676 2.496 0 .989-.241 1.84-.723 2.553-.482.713-1.173 1.245-2.074 1.595l3.022 4.317h-2.628zM73.007 23.227c-1.014-1.02-1.52-2.48-1.52-4.383v-7.413h2.44v7.32c0 2.577 1.113 3.866 3.34 3.866 2.215 0 3.323-1.289 3.323-3.866v-7.32h2.402v7.413c0 1.903-.504 3.363-1.51 4.383-1.008 1.02-2.419 1.53-4.233 1.53-1.815 0-3.229-.51-4.242-1.53M100.372 22.505v2.064H89.167v-1.633l7.733-9.44h-7.602V11.43h10.83v1.633l-7.733 9.44zM116.214 22.524v2.045h-9.854V11.431h9.59v2.045h-7.15v3.416h6.344v2.009H108.8v3.623zM131.136 22.026c.7-.394 1.25-.944 1.65-1.652.401-.707.602-1.498.602-2.374 0-.876-.2-1.667-.601-2.374a4.28 4.28 0 0 0-1.651-1.652c-.702-.394-1.49-.591-2.366-.591-.876 0-1.664.197-2.364.59-.701.395-1.252.946-1.652 1.653-.401.707-.6 1.498-.6 2.374 0 .876.199 1.667.6 2.374.4.708.95 1.258 1.652 1.652.7.394 1.488.591 2.364.591.876 0 1.664-.197 2.366-.59m-5.988 1.857a6.46 6.46 0 0 1-2.534-2.421c-.613-1.032-.92-2.187-.92-3.463 0-1.276.307-2.43.92-3.463a6.46 6.46 0 0 1 2.534-2.421c1.076-.582 2.284-.873 3.622-.873 1.34 0 2.547.29 3.623.873a6.485 6.485 0 0 1 2.533 2.412c.614 1.026.92 2.183.92 3.472 0 1.289-.306 2.446-.92 3.472a6.48 6.48 0 0 1-2.533 2.412c-1.076.582-2.284.873-3.623.873-1.338 0-2.546-.29-3.622-.873"/>
        </g>
        <use fill="url(#b)" fill-rule="nonzero" xlink:href="#a"/>
    </g>
</svg>
