<svg xmlns="http://www.w3.org/2000/svg" xmlns:xlink="http://www.w3.org/1999/xlink" width="30" height="36" viewBox="0 0 30 36">
    <defs>
        <path id="a" d="M29.865 13H19.24a4.457 4.457 0 0 0-3.06-2.868A4.502 4.502 0 0 0 15 9.97c-2.468 0-4.469 1.982-4.469 4.426 0 .59.12 1.152.33 1.667l.005.012a4.471 4.471 0 0 0 4.134 2.748c2.262 0 4.13-1.664 4.426-3.824h10.56c-.034 3.098-1.429 6.392-3.356 9.476-2.48 3.97-5.84 7.593-8.311 10.009l-.086.084c-1.841 1.794-4.772 1.857-6.698.152-.042-.036-.085-.076-.127-.113a53.269 53.269 0 0 1-1.683-1.564C5.41 28.85.016 22.156.016 14.886c0-1.478.22-2.904.626-4.251a14.862 14.862 0 0 1 5.253-7.536A15.01 15.01 0 0 1 15 .041a15.01 15.01 0 0 1 8.833 2.855c3.245 2.35 5.5 5.96 6.03 10.104z"/>
    </defs>
    <use fill="#FFF" fill-rule="nonzero" xlink:href="#a"/>
</svg>
