<svg xmlns="http://www.w3.org/2000/svg" xmlns:xlink="http://www.w3.org/1999/xlink" width="513" height="540" viewBox="0 0 513 540">
    <defs>
        <circle id="b" cx="221" cy="265" r="10"/>
        <filter id="a" width="310%" height="310%" x="-105%" y="-75%" filterUnits="objectBoundingBox">
            <feOffset dy="6" in="SourceAlpha" result="shadowOffsetOuter1"/>
            <feGaussianBlur in="shadowOffsetOuter1" result="shadowBlurOuter1" stdDeviation="6"/>
            <feColorMatrix in="shadowBlurOuter1" values="0 0 0 0 0 0 0 0 0 0.439215686 0 0 0 0 0.941176471 0 0 0 0.3 0"/>
        </filter>
    </defs>
    <g fill="none" fill-rule="nonzero">
        <path fill="#0F3F55" d="M291 0h1v440h-1zM362 100h1v440h-1zM220 50h1v440h-1zM433 50h1v440h-1zM149 0h1v440h-1z" opacity=".05"/>
        <path fill="#0F3F55" d="M465 195v1h-3v-1h3zm-6 0v1h-3v-1h3zm-6 0v1h-3v-1h3zm-6 0v1h-3v-1h3zm-6 0v1h-3v-1h3zm-6 0v1h-3v-1h3zm-6 0v1h-3v-1h3zm-6 0v1h-3v-1h3zm-6 0v1h-3v-1h3zm-6 0v1h-3v-1h3zm-6 0v1h-3v-1h3zm-6 0v1h-3v-1h3zm-6 0v1h-3v-1h3zm-6 0v1h-3v-1h3zm-6 0v1h-3v-1h3zm-6 0v1h-3v-1h3zm-6 0v1h-3v-1h3zm-6 0v1h-3v-1h3zm-6 0v1h-3v-1h3zm-6 0v1h-3v-1h3zm-6 0v1h-3v-1h3zm-6 0v1h-3v-1h3zm-6 0v1h-3v-1h3zm-6 0v1h-3v-1h3zm-6 0v1h-3v-1h3zm-6 0v1h-3v-1h3zm-6 0v1h-3v-1h3zm-6 0v1h-3v-1h3zm-6 0v1h-3v-1h3zm-6 0v1h-3v-1h3zm-6 0v1h-3v-1h3zm-6 0v1h-3v-1h3zm-6 0v1h-3v-1h3zm-6 0v1h-3v-1h3zm-6 0v1h-3v-1h3zm-6 0v1h-3v-1h3zm-6 0v1h-3v-1h3zm-6 0v1h-3v-1h3zm-6 0v1h-3v-1h3zm-6 0v1h-3v-1h3zm-6 0v1h-3v-1h3zm-6 0v1h-3v-1h3zm-6 0v1h-3v-1h3zm-6 0v1h-3v-1h3zm-6 0v1h-3v-1h3zm-6 0v1h-3v-1h3zm-6 0v1h-3v-1h3zm-6 0v1h-3v-1h3zm-6 0v1h-3v-1h3zm-6 0v1h-3v-1h3zm-6 0v1h-3v-1h3zm-6 0v1h-3v-1h3zm-6 0v1h-3v-1h3zm-6 0v1h-3v-1h3zm-6 0v1h-3v-1h3zm-6 0v1h-3v-1h3zm-6 0v1h-3v-1h3zm-6 0v1h-3v-1h3zm-6 0v1h-3v-1h3zm-6 0v1h-3v-1h3zm-6 0v1h-3v-1h3zm-6 0v1h-3v-1h3zm-6 0v1h-3v-1h3zm-6 0v1h-3v-1h3zm-6 0v1h-3v-1h3zm-6 0v1h-3v-1h3zm-6 0v1h-3v-1h3zm-6 0v1h-3v-1h3zm-6 0v1h-3v-1h3zm-6 0v1h-3v-1h3zm-6 0v1h-3v-1h3zm-6 0v1h-3v-1h3zm-6 0v1h-3v-1h3zm-6 0v1h-3v-1h3zm-6 0v1h-3v-1h3zm-6 0v1h-3v-1h3zm-6 0v1H6v-1h3zm-6 0v1H0v-1h3zM513 264.75v1h-3v-1h3zm-6 0v1h-3v-1h3zm-6 0v1h-3v-1h3zm-6 0v1h-3v-1h3zm-6 0v1h-3v-1h3zm-6 0v1h-3v-1h3zm-6 0v1h-3v-1h3zm-6 0v1h-3v-1h3zm-6 0v1h-3v-1h3zm-6 0v1h-3v-1h3zm-6 0v1h-3v-1h3zm-6 0v1h-3v-1h3zm-6 0v1h-3v-1h3zm-6 0v1h-3v-1h3zm-6 0v1h-3v-1h3zm-6 0v1h-3v-1h3zm-6 0v1h-3v-1h3zm-6 0v1h-3v-1h3zm-6 0v1h-3v-1h3zm-6 0v1h-3v-1h3zm-6 0v1h-3v-1h3zm-6 0v1h-3v-1h3zm-6 0v1h-3v-1h3zm-6 0v1h-3v-1h3zm-6 0v1h-3v-1h3zm-6 0v1h-3v-1h3zm-6 0v1h-3v-1h3zm-6 0v1h-3v-1h3zm-6 0v1h-3v-1h3zm-6 0v1h-3v-1h3zm-6 0v1h-3v-1h3zm-6 0v1h-3v-1h3zm-6 0v1h-3v-1h3zm-6 0v1h-3v-1h3zm-6 0v1h-3v-1h3zm-6 0v1h-3v-1h3zm-6 0v1h-3v-1h3zm-6 0v1h-3v-1h3zm-6 0v1h-3v-1h3zm-6 0v1h-3v-1h3zm-6 0v1h-3v-1h3zm-6 0v1h-3v-1h3zm-6 0v1h-3v-1h3zm-6 0v1h-3v-1h3zm-6 0v1h-3v-1h3zm-6 0v1h-3v-1h3zm-6 0v1h-3v-1h3zm-6 0v1h-3v-1h3zm-6 0v1h-3v-1h3zm-6 0v1h-3v-1h3zm-6 0v1h-3v-1h3zm-6 0v1h-3v-1h3zm-6 0v1h-3v-1h3zm-6 0v1h-3v-1h3zm-6 0v1h-3v-1h3zm-6 0v1h-3v-1h3zm-6 0v1h-3v-1h3zm-6 0v1h-3v-1h3zm-6 0v1h-3v-1h3zm-6 0v1h-3v-1h3zm-6 0v1h-3v-1h3zm-6 0v1h-3v-1h3zm-6 0v1h-3v-1h3zm-6 0v1h-3v-1h3zm-6 0v1h-3v-1h3zm-6 0v1h-3v-1h3zm-6 0v1h-3v-1h3zm-6 0v1h-3v-1h3zm-6 0v1h-3v-1h3zm-6 0v1h-3v-1h3zm-6 0v1h-3v-1h3zm-6 0v1h-3v-1h3zm-6 0v1h-3v-1h3zm-6 0v1h-3v-1h3zm-6 0v1h-3v-1h3zm-6 0v1h-3v-1h3zm-6 0v1h-3v-1h3zm-6 0v1h-3v-1h3zM465 335.75v1h-3v-1h3zm-6 0v1h-3v-1h3zm-6 0v1h-3v-1h3zm-6 0v1h-3v-1h3zm-6 0v1h-3v-1h3zm-6 0v1h-3v-1h3zm-6 0v1h-3v-1h3zm-6 0v1h-3v-1h3zm-6 0v1h-3v-1h3zm-6 0v1h-3v-1h3zm-6 0v1h-3v-1h3zm-6 0v1h-3v-1h3zm-6 0v1h-3v-1h3zm-6 0v1h-3v-1h3zm-6 0v1h-3v-1h3zm-6 0v1h-3v-1h3zm-6 0v1h-3v-1h3zm-6 0v1h-3v-1h3zm-6 0v1h-3v-1h3zm-6 0v1h-3v-1h3zm-6 0v1h-3v-1h3zm-6 0v1h-3v-1h3zm-6 0v1h-3v-1h3zm-6 0v1h-3v-1h3zm-6 0v1h-3v-1h3zm-6 0v1h-3v-1h3zm-6 0v1h-3v-1h3zm-6 0v1h-3v-1h3zm-6 0v1h-3v-1h3zm-6 0v1h-3v-1h3zm-6 0v1h-3v-1h3zm-6 0v1h-3v-1h3zm-6 0v1h-3v-1h3zm-6 0v1h-3v-1h3zm-6 0v1h-3v-1h3zm-6 0v1h-3v-1h3zm-6 0v1h-3v-1h3zm-6 0v1h-3v-1h3zm-6 0v1h-3v-1h3zm-6 0v1h-3v-1h3zm-6 0v1h-3v-1h3zm-6 0v1h-3v-1h3zm-6 0v1h-3v-1h3zm-6 0v1h-3v-1h3zm-6 0v1h-3v-1h3zm-6 0v1h-3v-1h3zm-6 0v1h-3v-1h3zm-6 0v1h-3v-1h3zm-6 0v1h-3v-1h3zm-6 0v1h-3v-1h3zm-6 0v1h-3v-1h3zm-6 0v1h-3v-1h3zm-6 0v1h-3v-1h3zm-6 0v1h-3v-1h3zm-6 0v1h-3v-1h3zm-6 0v1h-3v-1h3zm-6 0v1h-3v-1h3zm-6 0v1h-3v-1h3zm-6 0v1h-3v-1h3zm-6 0v1h-3v-1h3zm-6 0v1h-3v-1h3zm-6 0v1h-3v-1h3zm-6 0v1h-3v-1h3zm-6 0v1h-3v-1h3zm-6 0v1h-3v-1h3zm-6 0v1h-3v-1h3zm-6 0v1h-3v-1h3zm-6 0v1h-3v-1h3zm-6 0v1h-3v-1h3zm-6 0v1h-3v-1h3zm-6 0v1h-3v-1h3zm-6 0v1h-3v-1h3zm-6 0v1h-3v-1h3zm-6 0v1h-3v-1h3zm-6 0v1h-3v-1h3zm-6 0v1h-3v-1h3zm-6 0v1H6v-1h3zm-6 0v1H0v-1h3z" opacity=".2"/>
        <path fill="#0F3F55" d="M221 294c16.016 0 29-12.984 29-29s-12.984-29-29-29-29 12.984-29 29 12.984 29 29 29zm0 1c-16.569 0-30-13.431-30-30 0-16.569 13.431-30 30-30 16.569 0 30 13.431 30 30 0 16.569-13.431 30-30 30z" opacity=".05"/>
        <path fill="#0F3F55" d="M221 284c10.493 0 19-8.507 19-19s-8.507-19-19-19-19 8.507-19 19 8.507 19 19 19zm0 1c-11.046 0-20-8.954-20-20s8.954-20 20-20 20 8.954 20 20-8.954 20-20 20z" opacity=".1"/>
        <use fill="#000" filter="url(#a)" xlink:href="#b"/>
        <use fill="#0070F0" xlink:href="#b"/>
        <circle cx="221" cy="265" r="4" fill="#FFF"/>
    </g>
</svg>
