<svg xmlns="http://www.w3.org/2000/svg" width="141" height="43" viewBox="0 0 141 43">
    <g fill="#516B85" fill-rule="nonzero" opacity=".7">
        <path d="M87.41 33.13c-8.134 6.015-19.967 9.22-30.172 9.22-14.297 0-27.115-5.276-36.877-14.051-.74-.69-.098-1.627.838-1.085 10.501 6.113 23.467 9.762 36.877 9.762 9.022 0 18.981-1.874 28.15-5.769 1.381-.542 2.515.937 1.184 1.923z"/>
        <path d="M90.812 29.235c-1.035-1.33-6.902-.64-9.515-.295-.789.098-.937-.592-.197-1.085 4.683-3.303 12.325-2.317 13.212-1.233.888 1.085-.246 8.776-4.634 12.424-.69.542-1.331.247-1.035-.493.986-2.465 3.204-7.937 2.169-9.318zM81.445 4.684V1.479c0-.493.345-.789.789-.789H96.53c.443 0 .838.345.838.789v2.712c0 .443-.395 1.035-1.085 2.02L88.89 16.763c2.761-.05 5.67.345 8.135 1.726.542.296.69.789.74 1.232v3.402c0 .493-.494 1.035-1.036.74-4.388-2.318-10.255-2.564-15.086.049-.493.246-1.035-.247-1.035-.74v-3.254c0-.493 0-1.38.542-2.169l8.578-12.276h-7.444c-.444 0-.838-.345-.838-.788zM29.334 24.552h-4.339c-.394-.05-.74-.345-.788-.74V1.528c0-.443.394-.788.838-.788h4.042c.444 0 .74.345.79.739v2.909h.098C31.01 1.578 33.03.247 35.694.247c2.711 0 4.437 1.33 5.62 4.14 1.035-2.81 3.451-4.14 6.015-4.14 1.824 0 3.796.739 5.028 2.465 1.38 1.873 1.085 4.585 1.085 7v14.1c0 .444-.394.789-.838.789h-4.29c-.443-.05-.788-.394-.788-.789V11.98c0-.937.098-3.303-.099-4.19-.345-1.48-1.282-1.923-2.563-1.923-1.036 0-2.17.69-2.613 1.824-.444 1.134-.395 3.007-.395 4.29v11.831c0 .444-.394.789-.838.789H36.68c-.444-.05-.79-.394-.79-.789V11.98c0-2.465.395-6.163-2.661-6.163-3.106 0-3.008 3.55-3.008 6.163v11.832c-.049.395-.394.74-.887.74zM109.694.247c6.458 0 9.959 5.521 9.959 12.571 0 6.804-3.846 12.227-9.959 12.227-6.31 0-9.761-5.522-9.761-12.424-.05-6.951 3.45-12.374 9.761-12.374zm0 4.584c-3.204 0-3.402 4.388-3.402 7.1 0 2.711-.049 8.529 3.353 8.529 3.352 0 3.55-4.684 3.55-7.543 0-1.874-.1-4.141-.642-5.916-.493-1.578-1.479-2.17-2.859-2.17zm18.29 19.72h-4.338c-.444-.049-.789-.394-.789-.788V1.43a.852.852 0 0 1 .838-.74h4.043c.395 0 .69.296.789.641v3.402h.099c1.232-3.057 2.908-4.486 5.916-4.486 1.922 0 3.845.69 5.078 2.612 1.133 1.775 1.133 4.783 1.133 6.952v14.05c-.049.395-.394.69-.838.69h-4.338c-.394-.049-.74-.344-.789-.69V11.735c0-2.465.296-6.015-2.711-6.015-1.036 0-2.022.69-2.515 1.775-.591 1.38-.69 2.711-.69 4.24v12.029a.903.903 0 0 1-.887.789zm-53.54-.049a.891.891 0 0 1-1.035.099c-1.43-1.183-1.726-1.775-2.515-2.909-2.366 2.416-4.092 3.156-7.148 3.156-3.648 0-6.508-2.268-6.508-6.755 0-3.55 1.923-5.916 4.634-7.099 2.367-1.035 5.67-1.232 8.184-1.528v-.543c0-1.035.099-2.267-.542-3.155-.542-.789-1.528-1.134-2.416-1.134-1.676 0-3.155.838-3.5 2.613-.099.395-.345.789-.74.789l-4.19-.444c-.345-.098-.74-.345-.641-.887.986-5.127 5.57-6.656 9.712-6.656 2.12 0 4.88.543 6.557 2.17 2.12 1.972 1.923 4.634 1.923 7.493v6.754c0 2.022.838 2.91 1.627 4.043.296.394.345.888 0 1.134-.937.74-2.515 2.12-3.402 2.86zm-4.388-10.6v-.936c-3.155 0-6.458.69-6.458 4.388 0 1.873.986 3.155 2.662 3.155 1.233 0 2.317-.74 3.007-1.972.839-1.528.79-2.958.79-4.634zm-52.604 10.6a.891.891 0 0 1-1.035.099c-1.43-1.183-1.725-1.775-2.514-2.909-2.367 2.416-4.092 3.156-7.149 3.156-3.648 0-6.507-2.268-6.507-6.755 0-3.55 1.922-5.916 4.634-7.099 2.366-1.035 5.67-1.232 8.184-1.528v-.543c0-1.035.098-2.267-.543-3.155-.542-.789-1.528-1.134-2.415-1.134-1.677 0-3.156.838-3.5 2.613-.1.395-.346.789-.74.789l-4.19-.444c-.346-.098-.74-.345-.642-.887C2.021 1.578 6.606.049 10.748.049c2.12 0 4.88.543 6.557 2.17 2.12 1.972 1.922 4.634 1.922 7.493v6.754c0 2.022.838 2.91 1.627 4.043.296.394.345.888 0 1.134-.937.74-2.514 2.12-3.402 2.86zm-4.338-10.6v-.936c-3.155 0-6.458.69-6.458 4.388 0 1.873.986 3.155 2.662 3.155 1.232 0 2.317-.74 3.007-1.972.838-1.528.789-2.958.789-4.634z"/>
    </g>
</svg>
