<svg xmlns="http://www.w3.org/2000/svg" width="133" height="44" viewBox="0 0 133 44">
    <g fill="#516B85" fill-rule="nonzero" opacity=".7">
        <path d="M16.575 0h1.18c4.1.09 8.132 1.738 11.028 4.656-1.07 1.092-2.16 2.139-3.208 3.23-1.626-1.47-3.587-2.606-5.725-3.007-3.164-.668-6.572-.067-9.223 1.738-2.897 1.893-4.857 5.101-5.28 8.532-.468 3.386.49 6.95 2.695 9.58 2.117 2.562 5.347 4.166 8.689 4.277 3.119.178 6.371-.78 8.644-2.963 1.782-1.537 2.606-3.876 2.874-6.149-3.699 0-7.397.023-11.095 0v-4.589h15.572c.802 4.923-.356 10.47-4.099 13.99-2.495 2.496-5.948 3.966-9.468 4.256-3.408.334-6.928-.312-9.958-1.96-3.631-1.939-6.528-5.214-7.953-9.068-1.337-3.542-1.36-7.552-.112-11.117 1.136-3.252 3.32-6.126 6.127-8.131C9.958 1.292 13.233.2 16.575 0zM105.91 1.158h4.767v31.814c-1.581 0-3.185.022-4.767-.023.022-10.582 0-21.186 0-31.79zM43.33 12.186c2.942-.557 6.127.067 8.556 1.827 2.205 1.56 3.742 4.01 4.21 6.683.602 3.097-.156 6.483-2.16 8.934-2.162 2.74-5.704 4.21-9.157 3.988-3.164-.179-6.238-1.76-8.11-4.345-2.116-2.851-2.628-6.772-1.47-10.114 1.159-3.587 4.434-6.327 8.132-6.973zM44 16.42a5.99 5.99 0 0 0-3.12 1.983c-2.16 2.584-2.027 6.794.357 9.2 1.359 1.382 3.408 2.028 5.302 1.65 1.76-.313 3.297-1.494 4.144-3.053 1.47-2.651 1.047-6.305-1.203-8.377-1.449-1.336-3.565-1.893-5.48-1.403zM66.946 12.186c3.364-.646 7.04.29 9.557 2.651 4.099 3.676 4.545 10.56 1.047 14.793-2.116 2.673-5.547 4.144-8.934 3.988-3.23-.09-6.416-1.694-8.332-4.345-2.16-2.918-2.628-6.928-1.403-10.337 1.225-3.475 4.433-6.126 8.065-6.75zm.668 4.233a6.092 6.092 0 0 0-3.119 1.96c-2.139 2.54-2.05 6.684.245 9.112 1.359 1.448 3.475 2.161 5.436 1.76 1.738-.334 3.297-1.493 4.144-3.052 1.448-2.673 1.024-6.327-1.248-8.399-1.448-1.337-3.564-1.871-5.458-1.381zM86.974 13.478c2.562-1.604 5.97-2.05 8.733-.668.868.379 1.581 1.025 2.272 1.67.022-.6 0-1.225.022-1.848 1.493.022 2.985 0 4.5.022v19.65c-.022 2.962-.78 6.103-2.918 8.264-2.34 2.384-5.926 3.12-9.156 2.63-3.453-.513-6.461-3.03-7.798-6.216 1.337-.646 2.74-1.159 4.122-1.76.78 1.826 2.361 3.386 4.344 3.742 1.983.357 4.277-.133 5.57-1.782 1.38-1.693 1.38-4.01 1.314-6.082-1.025 1.003-2.206 1.894-3.631 2.228-3.097.869-6.506-.2-8.89-2.295-2.405-2.094-3.831-5.324-3.698-8.532.067-3.631 2.117-7.13 5.214-9.023zm4.611 2.852c-1.359.223-2.629.98-3.498 2.027-2.094 2.495-2.094 6.483.023 8.934 1.203 1.448 3.14 2.25 5.012 2.05 1.76-.179 3.387-1.293 4.255-2.83 1.47-2.607 1.226-6.149-.757-8.421-1.225-1.404-3.186-2.094-5.035-1.76zM116.403 14.614c2.673-2.495 6.795-3.341 10.225-2.027 3.253 1.225 5.325 4.322 6.372 7.508-4.834 2.005-9.646 3.988-14.48 5.993.668 1.27 1.692 2.428 3.074 2.896 1.938.69 4.255.445 5.881-.847.646-.49 1.159-1.136 1.649-1.76 1.225.825 2.45 1.627 3.675 2.45-1.737 2.607-4.656 4.434-7.797 4.724-3.475.423-7.173-.914-9.423-3.632-3.699-4.277-3.342-11.45.824-15.305zm2.384 4.122c-.758 1.091-1.07 2.428-1.047 3.743 3.23-1.337 6.46-2.674 9.69-4.033-.534-1.247-1.826-2.005-3.14-2.205-2.117-.379-4.323.757-5.503 2.495z"/>
    </g>
</svg>
