<svg xmlns="http://www.w3.org/2000/svg" width="173" height="36" viewBox="0 0 173 36">
    <path fill="#516B85" fill-rule="nonzero" d="M17.637.912H14.25v16.614c0 6.24-2.197 8.117-7.766 8.117C1.816 25.628 0 23.828 0 21.493c0-.534.198-2.257 1.907-2.257 1.693 0 1.8 1.144 1.8 3.005 0 .778.32 2.304 2.32 2.304 3.173 0 4.592-1.45 4.592-6.576V.912H7.354V.027h10.283v.885zm.687 20.764c-.565 0-1.053.183-1.434.58-.397.397-.595.87-.595 1.434 0 .565.198 1.038.595 1.404.396.397.87.58 1.434.58s1.037-.183 1.45-.58c.396-.366.594-.84.594-1.404 0-.58-.198-1.037-.595-1.434-.396-.396-.87-.58-1.45-.58zm22.046 0c-.564 0-1.037.183-1.434.58-.396.397-.58.87-.58 1.434 0 .565.183 1.038.58 1.404.412.397.885.58 1.434.58.565 0 1.053-.183 1.45-.58.396-.366.595-.84.595-1.404 0-.58-.199-1.037-.595-1.434-.397-.396-.885-.58-1.45-.58zM33.978.026c7.887 0 9.23 2.975 9.23 7.217 0 4.196-2.182 7.262-9.978 7.262l-2.685.016v6.331c0 .778.091 1.16.274 1.587.199.503.626.885 1.267 1.144.457.168 1.16.26 2.075.29v1.13H23.328v-1.13c.915-.03 1.602-.122 2.06-.32.61-.26 1.022-.641 1.205-1.145.168-.442.26-.518.26-2.044V.911h-2.96v-.87L33.978.028zm-1.389 13.519c4.76 0 7.125-2.06 7.125-6.088 0-4.013-1.312-6.469-7.323-6.469l-1.862.03V13.56h2.06v-.015zm41.591 8.803c-.137-.443-.214-.992-.214-1.694V.912h2.61V.027h-6.363c-.077.229-7.66 19.086-7.66 19.086a.207.207 0 0 1-.167.107.194.194 0 0 1-.183-.107S54.147.256 54.056.027h-7.064v.87h2.93v18.98l-.062 1.769c-.046.458-.198.87-.427 1.205-.244.351-.626.626-1.13.809-.335.107-.838.183-1.449.198v1.13h7.186v-1.13c-.594-.03-.854-.091-1.205-.198-.519-.168-.9-.427-1.16-.793a2.593 2.593 0 0 1-.427-1.236l-.076-1.77V3.52h.412s9.093 21.237 9.2 21.481h.762l8.62-21.238h.214v16.89c0 .732-.076 1.312-.213 1.755-.168.518-.534.9-1.068 1.16-.397.182-.992.274-1.785.304v1.13h9.826v-1.13c-.794-.045-1.404-.137-1.816-.32-.61-.29-.976-.686-1.144-1.205zM87.392 6.709c4.852 0 8.453 3.311 8.453 9.383 0 7.797-5.615 9.643-8.56 9.643-1.495 0-8.406-.58-8.406-9.475-.015-6.072 3.28-9.55 8.513-9.55zm-.06 17.927c3.524 0 4.607-2.197 4.607-8.59 0-4.44-.015-8.223-4.607-8.223-4.242 0-4.547 3.662-4.547 8.544 0 6.301.595 8.27 4.547 8.27zM109.56 6.984c-3.128 0-4.21 1.846-5.08 3.738l-.245-.015c-.015.015-.625-3.57-.625-3.57h-5.95v.946h3.264V20.38c0 1.22-.06 2.166-.381 2.685-.366.595-1.114.824-2.365.824h-.534v1.129h10.176v-1.129h-.549c-1.327 0-2.014-.29-2.364-.87-.321-.503-.473-1.373-.473-2.64v-6.377c0-2.15 1.724-4.623 3.676-4.623 2.045 0 2.106 2.93 4.303 1.877 1.556-.732 1.205-4.272-2.853-4.272zm40.507 16.188c.641 0 1.42-.672 1.587-1.938h.61c-.167 2.899-1.586 4.058-3.951 4.058-2.106 0-3.265-1.495-3.464-2.73-1.235 1.311-3.066 2.96-5.965 2.96-2.61 0-4.638-2.015-4.76-4.303-.351-5.859 7.354-6.484 10.603-6.774v-2.99c0-1.084-.244-1.954-.717-2.61-.503-.686-1.403-1.022-2.685-1.022-1.098 0-1.907.275-2.426.809-.488.518-.702 1.083-.854 2.06-.214 1.327-.778 1.845-1.785 1.845-.442 0-.794-.122-1.114-.396-.305-.26-.457-.641-.457-1.19 0-1.175.457-1.984 1.617-2.868 1.19-.916 3.052-1.373 5.569-1.373 2.624 0 4.44.488 5.37 1.434.946.946 1.206 2.044 1.206 3.646v7.476l.06 2.289c.122 1.022.458 1.617 1.556 1.617zm-5.324-7.629c-2.503 0-7.05 1.663-7.05 4.99 0 1.037.367 3.111 2.87 3.111.975 0 2.303-.564 4.042-2.15l.077-.077c.06-.046.06-.076.06-.137v-5.737zm26.105 7.522c-.443-.549-.534-1.755-.534-2.67V12.31c0-1.175-.153-2.166-.595-2.99a4.37 4.37 0 0 0-1.846-1.8c-.794-.397-1.694-.596-2.686-.596-3.57 0-5.126 2.06-5.828 3.449h-.274l-.626-3.235h-5.538v.93h2.776V20.38c0 .946-.076 1.633-.213 2.09-.153.55-.504.916-1.023 1.145-.335.137-.854.229-1.525.26v1.129h8.788v-1.13c-.885-.076-1.48-.305-1.8-.762-.351-.489-.504-1.313-.504-2.533v-4.714c0-1.969-.015-3.876.656-5.066.733-1.281 2.06-1.999 3.54-1.999 1.342 0 2.06.428 2.487 1.282.473.961.58 2.746.58 4.165v5.844c0 .976-.03 1.678-.092 2.136-.107.534-.229.976-.656 1.25-.305.214-.778.352-1.403.397v1.114H173v-1.13c-1.083-.046-1.724-.229-2.151-.793zm-39.73-17.073c.961-.305 1.755-.076 2.014 1.007.122.52.016 1.145-.29 1.694-.29.549-.793.946-1.586 1.19-.687.229-1.42.229-2.228.046.382.824.702 1.983.702 3.34 0 4.73-3.616 6.15-7.476 6.744-3.936.61-4.943 1.084-4.943 2.32 0 .839.519 1.327 3.25 1.327 5.645.274 8.162-.046 9.932 2.38.549.778.824 1.816.824 3.112 0 .946-.244 1.938-.778 2.9-.504.96-1.45 1.8-2.808 2.486-1.358.687-3.25 1.053-5.569 1.053-1.754 0-3.02-.137-4.943-.717-1.25-.366-2.899-1.373-2.899-3.494 0-.64.107-1.175.397-1.632.32-.489.976-.778 1.526-.687.976.168 1.266 1.053 1.098 1.892-.198.824-.015 1.983.93 2.563 1.282.793 2.686.976 4.41.976 2.014 0 3.631-.35 4.822-1.007 1.281-.717 1.907-1.678 1.907-2.868 0-.87-.306-1.54-.9-1.999-.565-.411-1.343-.686-2.304-.808-.9-.107-2.289-.183-4.226-.198-2.228-.046-3.998-.305-5.264-.824-1.145-.473-2.03-1.312-2.03-2.868 0-2.579 2.411-3.372 5.127-3.922.168-.03.168-.259-.03-.29-3.19-.67-4.638-2.502-4.638-6.255 0-3.219 2.181-6.743 7.14-6.743 3.067 0 4.821 1.037 5.737 1.877.274.213.9.198 1.266.091.366-.122.64-.534.778-1.266.183-.794.518-1.252 1.052-1.42zm-8.742 13.015c2.166 0 3.723-.657 3.723-5.615 0-3.463-.84-5.721-3.723-5.721-2.472 0-3.631 2.471-3.631 5.782-.015 4.714 1.312 5.554 3.63 5.554z" opacity=".7"/>
</svg>
