<svg xmlns="http://www.w3.org/2000/svg" width="128" height="27" viewBox="0 0 128 27">
    <path fill="#516B85" fill-rule="nonzero" d="M20.747 0h4.915v15.782C25.662 24.086 20.42 27 12.817 27 5.241 27 0 24.086 0 15.782V.632C0 .192.217 0 .652 0h4.915v15.535c0 4.976 2.172 7.038 7.25 7.038 5.106 0 7.278-2.062 7.278-7.038V.632c0-.44.217-.632.652-.632zm55.641 4.317v6.653h12.438c.217 0 .298.11.217.33l-1.358 3.41c-.136.302-.326.44-.733.44h-7.305c-2.39 0-3.259.742-3.259 2.364v4.702h16.837c.217 0 .298.11.217.33l-1.412 3.547c-.136.302-.326.44-.733.44H72.858c-1.412 0-1.955-.495-1.955-1.568V1.842C70.903.55 71.609 0 73.456 0h19.769c.217 0 .298.11.217.302L92.03 3.877c-.136.302-.326.44-.733.44H76.388zM60.774 19.19c0 5.307-3.693 7.342-8.88 7.342h-13.74c-1.44 0-1.956-.495-1.956-1.568V1.842C36.198.55 36.878 0 38.751 0h11.16c4.889 0 9.614.852 9.614 6.736 0 2.53-.896 4.674-3.042 5.802 2.96.797 4.29 3.492 4.29 6.653zm-19.172-8.138h8.717c2.879 0 3.693-1.127 3.693-3.437 0-2.31-.814-3.41-3.693-3.41h-8.717v6.847zm13.66 7.644c0-2.448-.842-3.657-3.938-3.657h-6.436c-2.39 0-3.286.742-3.286 2.364v4.922h9.722c3.096 0 3.937-1.21 3.937-3.63zm72.233 7.836h-4.997c-.407 0-.57-.165-.733-.44l-5.295-9.679h-4.861c-2.39 0-3.286.743-3.286 2.365v7.754h-4.78c-.434 0-.65-.22-.65-.633V1.842c0-1.292.705-1.842 2.552-1.842h11.215c6.544 0 10.482 1.732 10.482 8.166 0 4.977-2.363 6.929-5.295 7.699l5.892 10.2c.109.165.109.468-.244.468zm-5.866-18.257c0-2.695-.733-4.014-4.154-4.014h-9.152v8.028h9.152c3.421 0 4.154-1.292 4.154-4.014z" opacity=".7"/>
</svg>
