<svg xmlns="http://www.w3.org/2000/svg" width="119" height="45" viewBox="0 0 119 45">
    <g fill="#516B85" fill-rule="nonzero" opacity=".7">
        <path d="M19.82 44.374c-.03-.163-.059-.325-.082-.488-.017-.307-.03-.614-.04-.922-.772 0-1.898-.586-2.46-.847-2.048-1.375-2.924-2.785-3.301-5.117v-1.09c.377-3.11 2.617-5.478 5.72-5.966h.081v-.36h-1.612a1.04 1.04 0 0 1-.203-.562v-.406c.069-.337.069-.337.203-.604.51-.017 1.02-.029 1.531-.04h.081c-.028-2.233-.057-4.461-.08-6.69-5.037 4.021-5.037 4.021-5.118 4.149.975 1.189 1.375 1.351-.116 2.216-.679-.047-.697-.847-1.172-1.167a9.17 9.17 0 0 0-.238.122c.5 1.114.731 1.845.923 3.104v1.045c-.198 1.345-.337 1.769-.975 2.987-1.08 1.451-2.959 2.936-4.821 2.936a6.401 6.401 0 0 0-.325-.04h-.482c-.106.01-.213.023-.319.04-1.45 0-3.098-1.027-4.148-1.81-.365.268-.73.533-1.09.8-.714-.254-1.248-.823-1.248-1.566.255-.192.964-.615 1.027-.91C1 32.003.78 31.359.61 30.146v-.968c.453-3.37 2.53-5.644 5.999-5.965h.725c1.729.157 2.953.767 4.392 1.857.156-.162.156-.162.156-.325-1.253-1.485-1.068-1.246.326-2.175.22.278.69 1.102 1.085 1.172 5.68-4.549 5.68-4.549 5.76-4.677-5.517-4.513-5.517-4.513-5.72-4.594-.244.284-.482.568-.72.853.818.737.818.737 1.004.8-.087.349-.54.877-.888 1.05-.806-.69-.806-.69-1.003-.765-.221.255-.679.627-.679.969l.917.76c0 .267-.58.94-.842 1.01-.887-.726-1.768-1.451-2.65-2.17v-.18c.922-.522 1.844-1.044 2.767-1.56-.04-.424-.522-.604-.842-.604-.875.47-1.746.94-2.616 1.41.081-.54.615-2.57.882-2.941-.198-.244-.198-.244-.725-.656-.453.83-.773 2.193-1.045 3.156-.841-.209-2.286-1.532-2.9-2.257l.783-.992c.37.284.696.61 1.19.79.23-.326.55-.627.55-1.022l-.865-.707c0-.378.528-.813.76-1.092.349.279.697.564 1.044.847.233-.273.702-.69.702-1.032-.748-.586-1.491-1.172-2.234-1.752.163-.68.453-1.416 1.207-1.567 4.171 3.342 8.348 6.684 12.526 10.032.023-2.257.052-4.514.08-6.77H18.53c-.029.44-.058.882-.08 1.328H17.16V10.12c-.405-.017-.812-.029-1.212-.04-.029.44-.058.882-.08 1.328H14.66V7.743c1.044.43 2.095.86 3.145 1.294.023-.337.046-.673.075-1.009h-.075c-2.5-1.01-2.5-1.01-2.86-1.207.075-.237 2.447-1.05 2.86-1.213h.075V4.605h-.075C14.824 5.81 14.824 5.81 14.66 5.81V2.145h1.207c.023.44.053.882.08 1.329.401-.018.808-.029 1.213-.04V2.144h1.288c.023.44.052.882.081 1.329h1.126c.023-1.01.052-2.019.08-3.023.465-.36 1.428-.336 1.933.04.024 5.477.053 10.96.082 16.443 4.17-3.388 8.343-6.77 12.52-10.154.667.395 1.183.702 1.288 1.608-.75.58-1.496 1.165-2.24 1.752-.029.336.459.765.708 1.073.359-.29.72-.575 1.079-.859 1.166 1.596.574.47-.273 1.862.22.285.44.575.661.865.552 0 .737-.76 1.271-.673l.644.94c-.458.382-2.414 2.227-2.855 2.274-.307-1.073-.707-2.13-1.02-3.133-.273 0-.5.302-.697.47-.034.789.621 2.199.87 3.045-1.12-.08-1.856-1.206-2.854-1.42-.488.376-.488.376-.69.614a1873.5 1873.5 0 0 1 2.86 1.59v.202c-2.559 2.054-2.559 2.054-2.78 2.159-.25-.296-.702-.697-.725-1.01.766-.685.766-.685.928-.725-.285-.482-.285-.482-.766-1.045-.272.226-.777.766-1.09.766-.28-.353-.639-.655-.668-1.033.273-.22.812-.528.87-.864-.243-.272-.487-.54-.725-.807-5.436 4.393-5.436 4.393-5.633 4.636.215.262.215.262 5.674 4.677h.162c.308-.394.615-.783.929-1.172.557.225.881.319 1.212.957 0 .463-.765.83-.893 1.381l.243.121c1.358-1.043 2.582-1.642 4.305-1.816h.726c3.585.325 5.587 2.663 6.04 6.168v.563c-.123 1.137-.343 2.06-.876 3.132.052.483.493.674.893.999 0 .759-.476 1.392-1.225 1.589-.748-.667-.748-.667-1.027-.824-1.103.806-2.698 1.833-4.125 1.833a6.401 6.401 0 0 0-.325-.04h-.481c-.109.01-.217.024-.324.04-.238 0-.999-.116-1.127-.243-2.976-.935-4.049-2.704-4.67-5.6V29.625c.204-1.346.354-1.799.928-2.982-.08-.058-.162-.11-.243-.163-.314.379-.62.76-.928 1.144-.656.047-1.085-.5-1.329-.98.319-.408.644-.813.97-1.213-5.038-4.108-5.038-4.108-5.193-4.148-.03 2.228-.058 4.456-.082 6.69h1.607c.4.155.22 1.31 0 1.612h-1.607v.36h.082c3.155.318 5.407 2.918 5.795 6.045v.887c-.388 2.837-1.787 4.555-4.426 5.762-.436 0-.94.325-1.37.325-.028.47-.057.94-.08 1.411-.429.316-1.496.27-1.85 0zm11.19-15.277c-.602 0-1.02.517-1.38.937-.795 1.873-.129 2.54 1.137 3.944 2.088 1.369 4.53 1.63 6.561-.163-.08-.134-.08-.134-.963-.887.348-.761.447-.9 1.085-1.41.562.086.725.649 1.207.702 1.212-2.6.591-4.822-1.445-6.627-.638-.364-1.259-.765-1.932-.765h-.487c-1.288 0-1.938.987-2.118 2.112.492 2.332 3.057 2.449 3.852.226.012-.11.024-.22.04-.326.378.284.761.575 1.144.865.082 1.59-1.351 2.048-2.43 2.605h-.57a1.86 1.86 0 0 0-.11.07c.331 1.328-.33 3.186-1.82 3.515-1.126-.87-1.126-.87-1.167-.969 2.187-.435 1.805-3.829-.203-3.829h-.4zM15.51 36.674c.075 1.944 2.012 4.676 4.23 4.676v-.446c-.006-.273-.012-.539-.012-.806.72-.36 1.144-.267 1.944-.035.024.43.053.858.082 1.287 1.177 0 2.47-1.148 3.26-1.978.58-.98.777-1.398.963-2.454v-.97c-.116-.99-.383-1.443-.882-2.268-1.845-1.207-3.614-.892-3.545 1.706.343.558.8 1.37 1.653 1.37h.32c.39-.082.77-.217 1.124-.4v1.606c-1.404.354-3.051.57-3.863-.945-.134.051-.302.319-.645.666-.876.558-2.448.877-3.301.239h-.08c.022-.522.051-1.045.08-1.567 1.265.72 2.768.371 3.098-1.213v-.562c-.075-.366-.075-.366-.4-.98-1.248-.905-1.74-.784-3.058.01-.713.865-.811 1.381-.968 2.501v.563zm-9.3-11.847c-.703 0-1.289.383-1.876.702-2.135 1.758-2.674 4.137-1.508 6.69.447-.04.598-.64 1.207-.702.557.36 1.01.771 1.01 1.531-.314.255-.621.511-.928.766 2.465 2.466 7.182 1.184 8.093-2.216v-.644c-.168-.83-.841-1.857-1.729-1.857h-.406c-.963 0-1.514.905-1.729 1.694v.482c.215.974.639 1.271 1.515 1.67-.372.302-.743.604-1.114.911-1.085 0-1.81-1.612-2.014-2.419v-.481c.041-.215.082-.43.128-.64-.029-.015-.058-.034-.087-.045v.082h-.644v-.082c-1.259-.157-2.111-1.357-2.454-2.42.082-.133.082-.133 1.248-1.01.011.106.023.216.04.326.03.209.03.209.336.825 1.967 1.966 4.445-.25 2.965-2.437-.505-.407-.969-.726-1.572-.726h-.482zM57.08 7.644v21.23c0 2.39.391 4.106 1.175 5.147.784 1.042 2.099 1.563 3.946 1.563 2.125 0 3.693-.758 4.703-2.275 1.01-1.516 1.515-3.622 1.515-6.318V7.6h-3.187v-.968h7.211v.968H69.57v19.895c0 2.85-.714 5.163-2.143 6.94-1.428 1.776-3.622 2.665-6.583 2.665-3.24 0-5.627-.834-7.16-2.505-1.532-1.67-2.281-4.266-2.247-7.79V7.644h-3.083V6.633h11.81v1.01H57.08zm17.923-1.011h11.653c3.344.03 5.896.567 7.655 1.608 1.76 1.042 2.64 2.62 2.64 4.734-.035 1.93-.706 3.446-2.013 4.549-1.305 1.103-3.213 1.915-5.722 2.436l.052.23c2.718.674 4.8 1.662 6.246 2.963 1.445 1.303 2.169 2.98 2.169 5.033 0 2.665-.993 4.756-2.98 6.273-1.986 1.516-4.598 2.275-7.838 2.275H75.003v-1.012h3.031V7.644h-3.031V6.633zm8.675 12.775h2.612c1.359 0 2.43-.398 3.214-1.195.784-.796 1.176-1.884 1.176-3.262v-3.079c0-1.44-.366-2.496-1.098-3.171-.731-.674-1.742-1.026-3.03-1.057h-2.874v11.764zm0 16.315h2.351c1.811.03 3.136-.367 3.971-1.196.836-.827 1.272-2.374 1.307-4.64v-3.172c-.035-2.144-.444-3.723-1.228-4.734-.783-1.01-1.978-1.531-3.58-1.562h-2.821v15.304zm17.14-.622v-7.216h1.508c.538 1.932 1.385 3.664 2.54 5.196 1.517 2.006 3.285 3.009 5.306 3.009.174.03.366.03.575 0 .208-.031.435-.06.678-.092 1.255-.153 2.248-.69 2.978-1.608.732-.92 1.098-2.083 1.098-3.493 0-1.196-.296-2.267-.889-3.217-.592-.95-1.777-1.869-3.553-2.756l-4.337-2.115c-1.672-.797-2.943-1.869-3.815-3.217-.87-1.348-1.305-3.064-1.305-5.147-.035-2.39.678-4.35 2.143-5.883 1.462-1.532 3.31-2.297 5.538-2.297 2.77.09 5.755 1.142 8.047 2.244v6.671h-1.15a38.359 38.359 0 0 0-.6-1.838c-.17-.495-.353-.985-.548-1.47-.697-1.47-1.533-2.605-2.508-3.401-.975-.797-2.021-1.196-3.135-1.196-1.393 0-2.5.307-3.318.92-.819.612-1.229 1.531-1.229 2.757-.035 1.287.21 2.374.732 3.263.523.888 1.481 1.654 2.874 2.298l4.755 2.297c1.812.919 3.214 2.175 4.207 3.768.992 1.593 1.507 3.309 1.542 5.147 0 2.574-.767 4.78-2.3 6.618s-3.658 3.06-6.375 3.06c-2.033.001-7.972-.87-9.46-2.302z"/>
    </g>
</svg>
